<?xml version="1.0" encoding="UTF-8" standalone="no"?>
<svg width="420px" height="286px" viewBox="0 0 420 286" version="1.1" xmlns="http://www.w3.org/2000/svg" xmlns:xlink="http://www.w3.org/1999/xlink">
    <!-- Generator: Sketch 3.7.2 (28276) - http://www.bohemiancoding.com/sketch -->
    <title>Icons</title>
    <desc>Created with Sketch.</desc>
    <defs></defs>
    <g id="Page-1" stroke="none" stroke-width="1" fill="none" fill-rule="evenodd">
        <g id="Front-Screen" transform="translate(-533.000000, -84.000000)">
            <g id="Header">
                <g id="Icons" transform="translate(532.000000, 72.000000)">
                    <g id="Right-Icons" transform="translate(233.000000, 139.000000)">
                        <g id="PC-SVG" transform="translate(160.178367, 138.119313) rotate(-17.000000) translate(-160.178367, -138.119313) translate(136.178367, 119.619313)">
                            <g id="group-15svg" transform="translate(-0.000000, 0.000000)">
                                <path d="M38.5523807,20.6550842 C38.5523807,23.8007562 35.9950728,26.3513203 32.8409169,26.3513203 L10.7089946,26.3513203 C7.55412482,26.3513203 4.99753083,23.8007562 4.99753083,20.6550842 L4.99753083,8.54933698 C4.99753083,5.40366503 7.55412482,2.85310097 10.7089946,2.85310097 L32.8409169,2.85310097 C35.9950728,2.85310097 38.5523807,5.40366503 38.5523807,8.54933698 L38.5523807,20.6550842 L38.5523807,20.6550842 Z" id="path-1" fill="#EDC951"></path>
                                <path d="M28.9142855,25.6394687 L6.78236327,25.6394687 C3.04278234,25.6394687 -5.68434189e-14,22.6048456 -5.68434189e-14,18.8747435 L-5.68434189e-14,6.76970813 C-5.68434189e-14,3.03960607 3.04278234,0.00498296077 6.78236327,0.00498296077 L28.9142855,0.00498296077 C32.6538664,0.00498296077 35.6966488,3.03960607 35.6966488,6.76970813 L35.6966488,18.8747435 C35.6966488,22.6048456 32.6538664,25.6394687 28.9142855,25.6394687 L28.9142855,25.6394687 Z M6.78236327,2.14124943 C4.22362748,2.14124943 2.14179893,4.21700851 2.14179893,6.76970813 L2.14179893,18.8747435 C2.14179893,21.4267313 4.22362748,23.5032022 6.78236327,23.5032022 L28.9142855,23.5032022 C31.4730213,23.5032022 33.5548499,21.4267313 33.5548499,18.8747435 L33.5548499,6.76970813 C33.5548499,4.21700851 31.4730213,2.14124943 28.9142855,2.14124943 L6.78236327,2.14124943 L6.78236327,2.14124943 Z" id="path-2" fill="#000000"></path>
                                <path d="M29.5625367,25.6394687 L6.46823276,25.6394687 C2.9899513,25.6394687 0.265583067,22.9807032 0.265583067,19.5865951 C0.265583067,18.997182 0.744632094,18.5188178 1.33648253,18.5188178 L34.6942869,18.5188178 C35.2854234,18.5188178 35.7651864,18.997182 35.7651864,19.5865951 C35.7651864,22.9807032 33.0401042,25.6394687 29.5625367,25.6394687 L29.5625367,25.6394687 Z M2.55445219,20.6550842 C3.02493402,22.3158339 4.57631037,23.5032022 6.46823276,23.5032022 L29.5625367,23.5032022 C31.454459,23.5032022 33.0051215,22.3158339 33.4763172,20.6550842 L2.55445219,20.6550842 L2.55445219,20.6550842 Z" id="path-3" fill="#000000"></path>
                                <path d="M18.2052909,30.979779 C17.6134404,30.979779 17.1343914,30.5014147 17.1343914,29.9120016 L17.1343914,24.9269053 C17.1343914,24.3374922 17.6134404,23.859128 18.2052909,23.859128 C18.7971413,23.859128 19.2761903,24.3374922 19.2761903,24.9269053 L19.2761903,29.9120016 C19.2761903,30.5014147 18.7971413,30.979779 18.2052909,30.979779 L18.2052909,30.979779 Z" id="path-4" fill="#000000"></path>
                                <path d="M24.0209889,36.0460264 C23.4298524,36.0460264 22.9500894,35.5676621 22.9500894,34.978249 C22.9500894,33.127435 21.0089057,31.6211572 18.6222277,31.6211572 C16.2355498,31.6211572 14.2936521,33.127435 14.2936521,34.978249 C14.2936521,35.5676621 13.8146031,36.0460264 13.2227526,36.0460264 C12.6316161,36.0460264 12.1518532,35.5676621 12.1518532,34.978249 C12.1518532,31.9493208 15.0547047,29.4848907 18.6222277,29.4848907 C22.1897508,29.4848907 25.0918884,31.9493208 25.0918884,34.978249 C25.0918884,35.5676621 24.6128393,36.0460264 24.0209889,36.0460264 L24.0209889,36.0460264 Z" id="path-5" fill="#000000"></path>
                                <path d="M43.5499115,30.6238532 C43.5499115,32.9829292 41.6315736,34.8963861 39.2663137,34.8963861 L32.8409169,34.8963861 C30.4756569,34.8963861 28.557319,32.9829292 28.557319,30.6238532 L28.557319,17.0944028 C28.557319,14.7353268 30.4756569,12.8218699 32.8409169,12.8218699 L39.2663137,12.8218699 C41.6315736,12.8218699 43.5499115,14.7353268 43.5499115,17.0944028 L43.5499115,30.6238532 L43.5499115,30.6238532 Z" id="path-6" fill="#FFFFFF"></path>
                                <path d="M47.8335094,32.0475563 C47.8335094,34.4073441 45.9151715,36.3200892 43.5499115,36.3200892 L37.1245147,36.3200892 C34.7585409,36.3200892 32.8409169,34.4073441 32.8409169,32.0475563 L32.8409169,18.5188178 C32.8409169,16.1590299 34.7585409,14.2462848 37.1245147,14.2462848 L43.5499115,14.2462848 C45.9151715,14.2462848 47.8335094,16.1590299 47.8335094,18.5188178 L47.8335094,32.0475563 L47.8335094,32.0475563 Z" id="path-7" fill="#E56A77"></path>
                                <path d="M39.6232802,35.6082377 L33.1978834,35.6082377 C30.2450566,35.6082377 27.8433861,33.2128572 27.8433861,30.2679274 L27.8433861,16.7384771 C27.8433861,13.7935473 30.2450566,11.3981668 33.1978834,11.3981668 L39.6232802,11.3981668 C42.5761069,11.3981668 44.9777775,13.7935473 44.9777775,16.7384771 L44.9777775,30.2679274 C44.9777775,33.2128572 42.5761069,35.6082377 39.6232802,35.6082377 L39.6232802,35.6082377 Z M33.1978834,13.5337214 C31.4259017,13.5337214 29.985185,14.9716616 29.985185,16.7384771 L29.985185,30.2679274 C29.985185,32.0347429 31.4259017,33.4719712 33.1978834,33.4719712 L39.6232802,33.4719712 C41.3945479,33.4719712 42.8359785,32.0347429 42.8359785,30.2679274 L42.8359785,16.7384771 C42.8359785,14.9716616 41.3945479,13.5337214 39.6232802,13.5337214 L33.1978834,13.5337214 L33.1978834,13.5337214 Z" id="path-8" fill="#000000"></path>
                                <path d="M32.8409169,31.3357047 L47.8335094,31.3357047 L47.8335094,18.5188178 L32.8409169,18.5188178 L32.8409169,31.3357047 L32.8409169,31.3357047 Z" id="path-9" fill="#53ECF4"></path>
                                <path d="M43.906878,30.6238532 L28.9142855,30.6238532 C28.3224351,30.6238532 27.8433861,30.145489 27.8433861,29.555364 L27.8433861,16.7384771 C27.8433861,16.1483522 28.3224351,15.6699879 28.9142855,15.6699879 L43.906878,15.6699879 C44.4987284,15.6699879 44.9777775,16.1483522 44.9777775,16.7384771 L44.9777775,29.555364 C44.9777775,30.145489 44.4987284,30.6238532 43.906878,30.6238532 L43.906878,30.6238532 Z M29.985185,28.4875867 L42.8359785,28.4875867 L42.8359785,17.8062544 L29.985185,17.8062544 L29.985185,28.4875867 L29.985185,28.4875867 Z" id="path-10" fill="#000000"></path>
                                <path d="M37.7035144,14.873426 C37.7035144,15.2193859 37.4222248,15.5005673 37.0752534,15.5005673 C36.7282819,15.5005673 36.4469923,15.2193859 36.4469923,14.873426 C36.4469923,14.5274662 36.7282819,14.2469967 37.0752534,14.2469967 C37.4222248,14.2469967 37.7035144,14.5274662 37.7035144,14.873426 L37.7035144,14.873426 Z" id="path-11" fill="#000000"></path>
                                <path d="M37.8384477,32.7601197 L36.4105818,32.7601197 C36.0164908,32.7601197 35.6966488,32.4412102 35.6966488,32.0475563 C35.6966488,31.6546142 36.0164908,31.3357047 36.4105818,31.3357047 L37.8384477,31.3357047 C38.2325387,31.3357047 38.5523807,31.6546142 38.5523807,32.0475563 C38.5523807,32.4412102 38.2325387,32.7601197 37.8384477,32.7601197 L37.8384477,32.7601197 Z" id="path-12" fill="#000000"></path>
                            </g>
                        </g>
                        <g id="Group-17" transform="translate(96.242841, 42.174748) rotate(6.000000) translate(-96.242841, -42.174748) translate(54.242841, 5.174748)">
                            <g id="group-17svg" transform="translate(0.000000, 0.000000)">
                                <path d="M83.6609972,63.2953888 C83.6609972,69.002932 79.0506327,73.6301464 73.3642591,73.6301464 L19.306384,73.6301464 C13.6200103,73.6301464 9.00964585,69.002932 9.00964585,63.2953888 L9.00964585,16.7934971 C9.00964585,11.0859539 13.6200103,6.4600302 19.306384,6.4600302 L73.3642591,6.4600302 C79.0506327,6.4600302 83.6609972,11.0859539 83.6609972,16.7934971 L83.6609972,63.2953888 L83.6609972,63.2953888 Z" id="path-1" fill="#FF917B"></path>
                                <path d="M83.6609972,23.2522366 L83.6609972,16.1236158 C83.6609972,10.6342036 78.9051913,6.4600302 73.4363362,6.4600302 L18.9640174,6.4600302 C13.4951624,6.4600302 9.00964585,10.6342036 9.00964585,16.1236158 L9.00964585,23.2522366 L83.6609972,23.2522366 L83.6609972,23.2522366 Z" id="path-2" fill="#EDC951"></path>
                                <path d="M48.8631707,32.4743976 C47.1989604,32.4743976 45.6673206,34.5485771 44.4291379,35.47402 C43.189668,34.5485771 41.6580282,32.4743976 39.9938179,32.4743976 C35.8841323,32.4743976 32.5518505,35.818641 32.5518505,39.9437672 C32.5518505,44.0688933 43.189668,56.2519553 44.4291379,55.3265124 C45.6673206,56.2519553 56.3064253,44.0688933 56.3064253,39.9437672 C56.3064253,35.818641 52.9728563,32.4743976 48.8631707,32.4743976 L48.8631707,32.4743976 Z" id="path-3" fill="#FFFFFF"></path>
                                <path d="M66.2852516,71.0461343 L12.2273765,71.0461343 C5.48558723,71.0461343 7.88702437e-13,65.5412335 7.88702437e-13,58.7753037 L7.88702437e-13,12.2721213 C7.88702437e-13,5.50619158 5.48558723,0.00129071532 12.2273765,0.00129071532 L66.2852516,0.00129071532 C73.0270409,0.00129071532 78.5126281,5.50619158 78.5126281,12.2721213 L78.5126281,58.7753037 C78.5126281,65.5412335 73.0270409,71.0461343 66.2852516,71.0461343 L66.2852516,71.0461343 Z M12.2273765,3.87601812 C7.61443784,3.87601812 3.86127679,7.64361615 3.86127679,12.2721213 L3.86127679,58.7753037 C3.86127679,63.4038089 7.61443784,67.1714069 12.2273765,67.1714069 L66.2852516,67.1714069 C70.8981903,67.1714069 74.6513513,63.4038089 74.6513513,58.7753037 L74.6513513,12.2721213 C74.6513513,7.64361615 70.8981903,3.87601812 66.2852516,3.87601812 L12.2273765,3.87601812 L12.2273765,3.87601812 Z" id="path-4" fill="#000000"></path>
                                <path d="M76.5819897,21.9602305 L1.9306384,21.9602305 C0.864926002,21.9602305 7.88702437e-13,21.0928698 7.88702437e-13,20.0228668 L7.88702437e-13,12.39603 C7.88702437e-13,5.79273038 5.67993816,0.00129071532 12.1552993,0.00129071532 L66.6276181,0.00129071532 C73.0695149,0.00129071532 78.5126281,5.67785671 78.5126281,12.39603 L78.5126281,20.0228668 C78.5126281,21.0928698 77.6477021,21.9602305 76.5819897,21.9602305 L76.5819897,21.9602305 Z M3.86127679,18.0855031 L74.6513513,18.0855031 L74.6513513,12.39603 C74.6513513,7.8578749 70.9020516,3.87601812 66.6276181,3.87601812 L12.1552993,3.87601812 C7.81393714,3.87601812 3.86127679,7.93660853 3.86127679,12.39603 L3.86127679,18.0855031 L3.86127679,18.0855031 Z" id="path-5" fill="#000000"></path>
                                <path d="M16.6820028,11.751963 C16.6820028,12.9613633 15.7038127,13.9435977 14.4978073,13.9435977 C13.2905147,13.9435977 12.3123246,12.9613633 12.3123246,11.751963 C12.3123246,10.5412721 13.2905147,9.5590377 14.4978073,9.5590377 C15.7038127,9.5590377 16.6820028,10.5412721 16.6820028,11.751963 L16.6820028,11.751963 Z" id="path-6" fill="#000000"></path>
                                <path d="M23.9643709,11.751963 C23.9643709,12.9613633 22.9861807,13.9435977 21.7801753,13.9435977 C20.5728828,13.9435977 19.5959797,12.9613633 19.5959797,11.751963 C19.5959797,10.5412721 20.5728828,9.5590377 21.7801753,9.5590377 C22.9861807,9.5590377 23.9643709,10.5412721 23.9643709,11.751963 L23.9643709,11.751963 Z" id="path-7" fill="#000000"></path>
                                <path d="M31.2454518,11.751963 C31.2454518,12.9613633 30.2685488,13.9435977 29.0612562,13.9435977 C27.8552508,13.9435977 26.8770607,12.9613633 26.8770607,11.751963 C26.8770607,10.5412721 27.8552508,9.5590377 29.0612562,9.5590377 C30.2685488,9.5590377 31.2454518,10.5412721 31.2454518,11.751963 L31.2454518,11.751963 Z" id="path-8" fill="#000000"></path>
                                <path d="M40.7390443,56.022208 L40.7377573,56.022208 C40.6811252,56.022208 40.623206,56.0209172 40.5678611,56.0157544 C38.9023637,56.1474073 36.1840248,53.8473526 32.3536382,49.0742874 C29.8013343,45.8952555 26.7599353,41.5055327 26.7599353,38.6517611 C26.7599353,33.4643762 30.9648657,29.2450278 36.1325411,29.2450278 C37.9820927,29.2450278 39.409478,30.4983124 40.5678611,31.5889669 C41.724957,30.4983124 43.1523423,29.2450278 45.0018939,29.2450278 C50.1695694,29.2450278 54.3757869,33.4643762 54.3757869,38.6517611 C54.3757869,41.5055327 51.3331008,45.8952555 48.7807968,49.0742874 C45.0804066,53.6847225 42.3749386,56.022208 40.7390443,56.022208 L40.7390443,56.022208 Z M36.1325411,33.1197552 C33.0937163,33.1197552 30.6212121,35.6018008 30.6212121,38.6517611 C30.6212121,41.3248326 38.1146632,50.5637728 40.5678611,52.0816541 C43.0210589,50.5637728 50.5145101,41.3235418 50.5145101,38.6517611 C50.5145101,35.6018008 48.0407188,33.1197552 45.0018939,33.1197552 C44.5771535,33.1197552 43.5217378,34.1187689 43.0159106,34.598915 C42.5963185,34.9951646 42.1625684,35.4069028 41.7198087,35.7373259 C41.0363627,36.2471585 40.0980724,36.2471585 39.4146264,35.7373259 C38.9718667,35.4069028 38.5381166,34.9951646 38.1185245,34.598915 C37.6126972,34.1187689 36.5572816,33.1197552 36.1325411,33.1197552 L36.1325411,33.1197552 Z" id="path-9" fill="#000000"></path>
                            </g>
                        </g>
                        <g id="Group-24" transform="translate(0.000000, 96.877551)">
                            <g id="group-24svg">
                                <path d="M20.7236842,52.0978776 L11.6052632,52.0978776 C10.9180658,52.0978776 10.3618421,51.542449 10.3618421,50.8572551 C10.3618421,50.1728878 10.9180658,49.6174592 11.6052632,49.6174592 L20.7236842,49.6174592 C21.4108816,49.6174592 21.9671053,50.1728878 21.9671053,50.8572551 C21.9671053,51.542449 21.4108816,52.0978776 20.7236842,52.0978776 L20.7236842,52.0978776 Z" id="path-1" fill="#000000"></path>
                                <path d="M30.6710526,31.428 C30.6710526,35.0812653 27.7017632,38.0427245 24.0394737,38.0427245 L17.4078947,38.0427245 C13.7447763,38.0427245 10.7763158,35.0812653 10.7763158,31.428 L10.7763158,11.5854796 C10.7763158,7.93221429 13.7447763,4.9707551 17.4078947,4.9707551 L24.0394737,4.9707551 C27.7017632,4.9707551 30.6710526,7.93221429 30.6710526,11.5854796 L30.6710526,31.428 L30.6710526,31.428 Z" id="path-2" fill="#81BDA4"></path>
                                <path d="M30.6710526,29.7749388 L10.7763158,29.7749388 L10.7763158,13.2385408 L30.6710526,13.2385408 L30.6710526,29.7749388 L30.6710526,29.7749388 Z" id="path-3" fill="#53ECF4"></path>
                                <path d="M19.4802632,35.5623061 L12.8486842,35.5623061 C8.50665789,35.5623061 4.97368421,32.0388061 4.97368421,27.7077857 L4.97368421,7.86443878 C4.97368421,3.5342449 8.50665789,0.010744898 12.8486842,0.010744898 L19.4802632,0.010744898 C23.8222895,0.010744898 27.3552632,3.5342449 27.3552632,7.86443878 L27.3552632,27.7077857 C27.3552632,32.0388061 23.8222895,35.5623061 19.4802632,35.5623061 L19.4802632,35.5623061 Z M12.8486842,2.49033673 C9.87773684,2.49033673 7.46052632,4.90132653 7.46052632,7.86443878 L7.46052632,27.7077857 C7.46052632,30.670898 9.87773684,33.0818878 12.8486842,33.0818878 L19.4802632,33.0818878 C22.4512105,33.0818878 24.8684211,30.670898 24.8684211,27.7077857 L24.8684211,7.86443878 C24.8684211,4.90132653 22.4512105,2.49033673 19.4802632,2.49033673 L12.8486842,2.49033673 L12.8486842,2.49033673 Z" id="path-4" fill="#000000"></path>
                                <path d="M20.4609079,42.1762041 L11.6193553,42.1762041 C5.10382895,42.1762041 0,37.3600102 0,31.211449 L0,20.6797959 C0,19.9954286 0.556223684,19.44 1.24342105,19.44 C1.93061842,19.44 2.48684211,19.9954286 2.48684211,20.6797959 L2.48684211,31.211449 C2.48684211,35.9689592 6.49811842,39.6957857 11.6193553,39.6957857 L20.4609079,39.6957857 C25.7214079,39.6957857 29.8421053,35.9689592 29.8421053,31.211449 L29.8421053,20.6797959 C29.8421053,19.9954286 30.3983289,19.44 31.0855263,19.44 C31.7727237,19.44 32.3289474,19.9954286 32.3289474,20.6797959 L32.3289474,31.211449 C32.3289474,37.3600102 27.1156974,42.1762041 20.4609079,42.1762041 L20.4609079,42.1762041 Z" id="path-5" fill="#000000"></path>
                                <path d="M16.1644737,50.8572551 C15.4772763,50.8572551 14.9210526,50.3018265 14.9210526,49.6174592 L14.9210526,42.1762041 C14.9210526,41.4918367 15.4772763,40.9364082 16.1644737,40.9364082 C16.8516711,40.9364082 17.4078947,41.4918367 17.4078947,42.1762041 L17.4078947,49.6174592 C17.4078947,50.3018265 16.8516711,50.8572551 16.1644737,50.8572551 L16.1644737,50.8572551 Z" id="path-6" fill="#000000"></path>
                                <path d="M27.3552632,27.2945204 L4.97368421,27.2945204 L4.97368421,8.27853061 L27.3552632,8.27853061 L27.3552632,27.2945204 L27.3552632,27.2945204 Z M7.46052632,24.814102 L24.8684211,24.814102 L24.8684211,10.758949 L7.46052632,10.758949 L7.46052632,24.814102 L7.46052632,24.814102 Z" id="path-7" fill="#000000"></path>
                                <path d="M23.5238684,15.0007041 C23.5238684,15.7214388 22.9378026,16.3057959 22.2149605,16.3057959 C21.4921184,16.3057959 20.9068816,15.7214388 20.9068816,15.0007041 C20.9068816,14.2799694 21.4921184,13.6947857 22.2149605,13.6947857 C22.9378026,13.6947857 23.5238684,14.2799694 23.5238684,15.0007041 L23.5238684,15.0007041 Z" id="path-8" fill="#000000"></path>
                                <path d="M18.2882368,15.0007041 C18.2882368,15.7214388 17.7021711,16.3057959 16.9801579,16.3057959 C16.2573158,16.3057959 15.67125,15.7214388 15.67125,15.0007041 C15.67125,14.2799694 16.2573158,13.6947857 16.9801579,13.6947857 C17.7021711,13.6947857 18.2882368,14.2799694 18.2882368,15.0007041 L18.2882368,15.0007041 Z" id="path-9" fill="#000000"></path>
                                <path d="M13.0534342,15.0007041 C13.0534342,15.7214388 12.4673684,16.3057959 11.7445263,16.3057959 C11.0216842,16.3057959 10.4356184,15.7214388 10.4356184,15.0007041 C10.4356184,14.2799694 11.0216842,13.6947857 11.7445263,13.6947857 C12.4673684,13.6947857 13.0534342,14.2799694 13.0534342,15.0007041 L13.0534342,15.0007041 Z" id="path-10" fill="#000000"></path>
                                <path d="M23.5238684,23.7040714 C23.5238684,24.4248061 22.9378026,25.0091633 22.2149605,25.0091633 C21.4921184,25.0091633 20.9068816,24.4248061 20.9068816,23.7040714 C20.9068816,22.9825102 21.4921184,22.3981531 22.2149605,22.3981531 C22.9378026,22.3981531 23.5238684,22.9825102 23.5238684,23.7040714 L23.5238684,23.7040714 Z" id="path-11" fill="#000000"></path>
                                <path d="M18.2882368,23.7040714 C18.2882368,24.4248061 17.7021711,25.0091633 16.9801579,25.0091633 C16.2573158,25.0091633 15.67125,24.4248061 15.67125,23.7040714 C15.67125,22.9825102 16.2573158,22.3981531 16.9801579,22.3981531 C17.7021711,22.3981531 18.2882368,22.9825102 18.2882368,23.7040714 L18.2882368,23.7040714 Z" id="path-12" fill="#000000"></path>
                                <path d="M13.0534342,23.7040714 C13.0534342,24.4248061 12.4673684,25.0091633 11.7445263,25.0091633 C11.0216842,25.0091633 10.4356184,24.4248061 10.4356184,23.7040714 C10.4356184,22.9825102 11.0216842,22.3981531 11.7445263,22.3981531 C12.4673684,22.3981531 13.0534342,22.9825102 13.0534342,23.7040714 L13.0534342,23.7040714 Z" id="path-13" fill="#000000"></path>
                                <path d="M26.1416842,19.3523878 C26.1416842,20.0731224 25.5564474,20.6574796 24.8336053,20.6574796 C24.1099342,20.6574796 23.5238684,20.0731224 23.5238684,19.3523878 C23.5238684,18.6308265 24.1099342,18.0464694 24.8336053,18.0464694 C25.5564474,18.0464694 26.1416842,18.6308265 26.1416842,19.3523878 L26.1416842,19.3523878 Z" id="path-14" fill="#000000"></path>
                                <path d="M10.4356184,19.3523878 C10.4356184,20.0731224 9.84955263,20.6574796 9.12671053,20.6574796 C8.40386842,20.6574796 7.81780263,20.0731224 7.81780263,19.3523878 C7.81780263,18.6308265 8.40386842,18.0464694 9.12671053,18.0464694 C9.84955263,18.0464694 10.4356184,18.6308265 10.4356184,19.3523878 L10.4356184,19.3523878 Z" id="path-15" fill="#000000"></path>
                                <path d="M20.9068816,19.3523878 C20.9068816,20.0731224 20.3208158,20.6574796 19.5979737,20.6574796 C18.8751316,20.6574796 18.2882368,20.0731224 18.2882368,19.3523878 C18.2882368,18.6308265 18.8751316,18.0464694 19.5979737,18.0464694 C20.3208158,18.0464694 20.9068816,18.6308265 20.9068816,19.3523878 L20.9068816,19.3523878 Z" id="path-16" fill="#000000"></path>
                                <path d="M15.67125,19.3523878 C15.67125,20.0731224 15.0851842,20.6574796 14.3623421,20.6574796 C13.6395,20.6574796 13.0534342,20.0731224 13.0534342,19.3523878 C13.0534342,18.6308265 13.6395,18.0464694 14.3623421,18.0464694 C15.0851842,18.0464694 15.67125,18.6308265 15.67125,19.3523878 L15.67125,19.3523878 Z" id="path-17" fill="#000000"></path>
                            </g>
                        </g>
                    </g>
                    <g id="Left-Icons">
                        <g id="Phone-SVG" transform="translate(18.158586, 142.662838) rotate(8.000000) translate(-18.158586, -142.662838) translate(3.658586, 122.162838)">
                            <g id="group-5svg" transform="translate(0.000000, -0.000000)">
                                <path d="M28.4027574,35.4232587 C28.4027574,38.1564614 26.1910471,40.372087 23.4631475,40.372087 L8.64431748,40.372087 C5.91641787,40.372087 3.70470749,38.1564614 3.70470749,35.4232587 L3.70470749,8.20686724 C3.70470749,5.47366454 5.91641787,3.25803891 8.64431748,3.25803891 L23.4631475,3.25803891 C26.1910471,3.25803891 28.4027574,5.47366454 28.4027574,8.20686724 L28.4027574,35.4232587 L28.4027574,35.4232587 Z" id="path-1" fill="#FF917B"></path>
                                <path d="M3.70470749,34.8048871 L28.4027574,34.8048871 L28.4027574,8.20686724 L3.70470749,8.20686724 L3.70470749,34.8048871 L3.70470749,34.8048871 Z" id="path-2" fill="#E56A77"></path>
                                <path d="M20.6846168,39.1347254 L5.86578686,39.1347254 C2.63157722,39.1347254 -2.13162821e-14,36.498607 -2.13162821e-14,33.2583396 L-2.13162821e-14,6.04194809 C-2.13162821e-14,2.80168064 2.63157722,0.165562288 5.86578686,0.165562288 L20.6846168,0.165562288 C23.9188265,0.165562288 26.5504037,2.80168064 26.5504037,6.04194809 L26.5504037,33.2583396 C26.5504037,36.498607 23.9188265,39.1347254 20.6846168,39.1347254 L20.6846168,39.1347254 Z M5.86578686,2.02129561 C3.65284159,2.02129561 1.85235375,3.82508572 1.85235375,6.04194809 L1.85235375,33.2583396 C1.85235375,35.4752019 3.65284159,37.278992 5.86578686,37.278992 L20.6846168,37.278992 C22.8975621,37.278992 24.6980499,35.4752019 24.6980499,33.2583396 L24.6980499,6.04194809 C24.6980499,3.82508572 22.8975621,2.02129561 20.6846168,2.02129561 L5.86578686,2.02129561 L5.86578686,2.02129561 Z" id="path-3" fill="#000000"></path>
                                <path d="M25.6242268,33.5675254 L0.926176873,33.5675254 C0.414309788,33.5675254 1.0658141e-14,33.1519796 1.0658141e-14,32.6399679 L1.0658141e-14,6.04194809 C1.0658141e-14,5.52931799 0.414309788,5.11377224 0.926176873,5.11377224 L25.6242268,5.11377224 C26.1360939,5.11377224 26.5504037,5.52931799 26.5504037,6.04194809 L26.5504037,32.6399679 C26.5504037,33.1519796 26.1360939,33.5675254 25.6242268,33.5675254 L25.6242268,33.5675254 Z M1.85235375,31.7117921 L24.6980499,31.7117921 L24.6980499,6.96950556 L1.85235375,6.96950556 L1.85235375,31.7117921 L1.85235375,31.7117921 Z" id="path-4" fill="#000000"></path>
                                <path d="M15.0466695,3.6989379 C15.0466695,4.38223858 14.4934332,4.93629958 13.811767,4.93629958 C13.1294834,4.93629958 12.5768645,4.38223858 12.5768645,3.6989379 C12.5768645,3.01563723 13.1294834,2.46157623 13.811767,2.46157623 C14.4934332,2.46157623 15.0466695,3.01563723 15.0466695,3.6989379 L15.0466695,3.6989379 Z" id="path-5" fill="#000000"></path>
                                <path d="M15.4362812,36.0422487 L12.349025,36.0422487 C11.8371579,36.0422487 11.4228481,35.626703 11.4228481,35.1140729 C11.4228481,34.6020612 11.8371579,34.1865154 12.349025,34.1865154 L15.4362812,34.1865154 C15.9481483,34.1865154 16.3624581,34.6020612 16.3624581,35.1140729 C16.3624581,35.626703 15.9481483,36.0422487 15.4362812,36.0422487 L15.4362812,36.0422487 Z" id="path-6" fill="#000000"></path>
                                <path d="M17.9060862,17.5974591 L14.2013787,20.5780105 L10.4966712,20.5780105 L10.4966712,23.6704871 L14.2013787,23.6704871 L17.9060862,27.289198 L17.9060862,17.5974591 L17.9060862,17.5974591 Z" id="path-7" fill="#FFFFFF"></path>
                                <path d="M16.3624581,26.9800122 C16.1253568,26.9800122 15.8919602,26.8884932 15.7153692,26.7159675 L11.9717623,23.0521155 L8.95304311,23.0521155 C8.44117602,23.0521155 8.02686623,22.6365697 8.02686623,22.124558 L8.02686623,19.031463 C8.02686623,18.5194513 8.44117602,18.1039055 8.95304311,18.1039055 L12.069937,18.1039055 L15.8499736,15.5877513 C16.1346186,15.3972928 16.4995323,15.3805968 16.800231,15.5426101 C17.1009298,15.7046235 17.288635,16.0187563 17.288635,16.3607158 L17.288635,26.0518363 C17.288635,26.4253328 17.0651176,26.7623454 16.7218147,26.9076627 C16.6057339,26.9565141 16.4834785,26.9800122 16.3624581,26.9800122 L16.3624581,26.9800122 Z M9.87921998,21.1963821 L12.349025,21.1963821 C12.5910659,21.1963821 12.8232275,21.2916114 12.9967313,21.4604268 L15.4362812,23.8485781 L15.4362812,18.0909197 L12.862127,19.8044276 C12.7096165,19.9058405 12.5317905,19.9596388 12.349025,19.9596388 L9.87921998,19.9596388 L9.87921998,21.1963821 L9.87921998,21.1963821 Z" id="path-8" fill="#000000"></path>
                                <path d="M11.246257,26.4043082 L9.24201029,24.9579369 L16.6767408,14.6169078 L18.6809875,16.0632791 L11.246257,26.4043082 L11.246257,26.4043082 Z" id="path-9" fill="#E56A77"></path>
                                <path d="M10.2435162,26.2998034 C10.1187911,26.2998034 9.99283101,26.2614643 9.88354214,26.1829311 C9.60692398,25.9831971 9.54394395,25.5967148 9.7433807,25.3196843 L17.1781112,14.9786552 C17.3769305,14.7016247 17.763455,14.6379324 18.0400731,14.8382848 C18.3166913,15.0380189 18.3796713,15.4245011 18.1802346,15.7015316 L10.7455041,26.0425608 C10.6244836,26.2101395 10.4355436,26.2998034 10.2435162,26.2998034 L10.2435162,26.2998034 Z" id="path-10" fill="#000000"></path>
                                <path d="M3.86833207,26.4315165 C3.62505628,26.4315165 3.38178049,26.3356689 3.20024982,26.1458288 C2.84583281,25.7760426 2.85818183,25.1885895 3.22680023,24.8342626 L4.38266896,23.7236671 L3.22680023,22.6093614 C3.04526956,22.4349806 2.9421552,22.1931972 2.9421552,21.94152 C2.9421552,21.688606 3.04465211,21.4480594 3.22556532,21.2724418 L4.4011925,20.1377299 L3.21012904,18.9319052 C3.03724269,18.7575243 2.9409203,18.520688 2.9421552,18.2739577 C2.94400755,18.0278458 3.04279975,17.7922462 3.21753846,17.6191021 L5.0686573,15.7881037 C5.43233609,15.427593 6.01953222,15.4313032 6.37888885,15.7967609 C6.73824548,16.1616002 6.73454077,16.7490532 6.37024453,17.1089455 L5.17918107,18.2875619 L6.37765395,19.5008071 C6.55239265,19.677043 6.64871505,19.9157344 6.64562779,20.1643199 C6.64254053,20.4122869 6.54066108,20.6491232 6.36221767,20.8216489 L5.20387912,21.9402832 L6.36160022,23.0552073 C6.54313088,23.2302065 6.64562779,23.4719898 6.64562779,23.7242854 C6.64562779,23.9771995 6.54251343,24.2189828 6.36098276,24.3933636 L4.50986392,26.1730372 C4.33018561,26.3455629 4.09925884,26.4315165 3.86833207,26.4315165 L3.86833207,26.4315165 Z" id="path-11" fill="#000000"></path>
                                <path d="M20.0529642,26.4315165 C19.8096884,26.4315165 19.5664126,26.3356689 19.3842645,26.1458288 C19.0304649,25.7760426 19.042814,25.1885895 19.4114324,24.8342626 L20.5673011,23.7236671 L19.4108149,22.6093614 C19.2292842,22.4349806 19.1267873,22.1931972 19.1267873,21.94152 C19.1267873,21.688606 19.2292842,21.4480594 19.4101975,21.2724418 L20.5858246,20.1377299 L19.3947612,18.9319052 C19.2218748,18.7575243 19.1255524,18.520688 19.1267873,18.2739577 C19.1280222,18.0278458 19.2274319,17.7922462 19.4021706,17.6191021 L21.2532894,15.7881037 C21.6169682,15.427593 22.2035469,15.4313032 22.5629035,15.7967609 C22.9222602,16.1616002 22.9191729,16.7490532 22.5548767,17.1089455 L21.3638132,18.2875619 L22.5622861,19.5008071 C22.7370248,19.677043 22.8327297,19.9157344 22.8302599,20.1643199 C22.8271727,20.4122869 22.7252932,20.6491232 22.5468498,20.8216489 L21.3885113,21.9402832 L22.5462323,23.0552073 C22.727763,23.2302065 22.8302599,23.4719898 22.8302599,23.7242854 C22.8302599,23.9771995 22.7271456,24.2189828 22.5456149,24.3933636 L20.6944961,26.1730372 C20.5148177,26.3455629 20.283891,26.4315165 20.0529642,26.4315165 L20.0529642,26.4315165 Z" id="path-12" fill="#000000"></path>
                            </g>
                        </g>
                        <g id="Photography-SVG" transform="translate(88.465605, 41.775988) rotate(-11.000000) translate(-88.465605, -41.775988) translate(46.965605, 8.275988)">
                            <g id="group-18svg" transform="translate(0.000000, -0.000000)">
                                <path d="M60.1648206,55.7744161 C60.1648206,61.3561885 55.6750208,65.8809601 50.1373505,65.8809601 L17.5480727,65.8809601 C12.0104023,65.8809601 7.52060257,61.3561885 7.52060257,55.7744161 L7.52060257,35.5625908 C7.52060257,29.9808184 12.0104023,25.4573096 17.5480727,25.4573096 L50.1373505,25.4573096 C55.6750208,25.4573096 60.1648206,29.9808184 60.1648206,35.5625908 L60.1648206,55.7744161 L60.1648206,55.7744161 Z" id="path-1" fill="#99746A"></path>
                                <path d="M61.9960873,38.1286907 L78.8597851,27.0510193 C80.7148671,25.8626827 82.7266283,27.2038235 82.7266283,29.4188526 L82.7266283,64.1887486 C82.7266283,66.3873608 80.7474564,67.7322901 78.891121,66.5780503 L61.2741094,55.4877504 L61.9960873,38.1286907 L61.9960873,38.1286907 Z" id="path-2" fill="#99746A"></path>
                                <path d="M44.4968985,63.3540084 L11.9076207,63.3540084 C5.34213469,63.3540084 3.19744231e-13,57.9705026 3.19744231e-13,51.3531977 L3.19744231e-13,31.1413724 C3.19744231e-13,24.5240676 5.34213469,19.1405617 11.9076207,19.1405617 L44.4968985,19.1405617 C51.0623846,19.1405617 56.4045193,24.5240676 56.4045193,31.1413724 L56.4045193,51.3531977 C56.4045193,57.9705026 51.0623846,63.3540084 44.4968985,63.3540084 L44.4968985,63.3540084 Z M11.9076207,22.9303579 C7.41531413,22.9303579 3.76030129,26.6140751 3.76030129,31.1413724 L3.76030129,51.3531977 C3.76030129,55.880495 7.41531413,59.5642122 11.9076207,59.5642122 L44.4968985,59.5642122 C48.9892051,59.5642122 52.644218,55.880495 52.644218,51.3531977 L52.644218,31.1413724 C52.644218,26.6140751 48.9892051,22.9303579 44.4968985,22.9303579 L11.9076207,22.9303579 L11.9076207,22.9303579 Z" id="path-3" fill="#000000"></path>
                                <path d="M74.3800129,65.1055736 C73.5326916,65.1055736 72.6916376,64.8618447 71.9496048,64.3996436 L54.1734072,53.3080809 C53.6018414,52.9519588 53.2621608,52.3129595 53.2847226,51.6360749 L53.8500213,34.2770152 C53.8688228,33.65317 54.1934621,33.0798387 54.7148906,32.7426592 L71.8919468,21.6649878 C72.6515277,21.1787927 73.5088764,20.9236981 74.377506,20.9236981 C76.9069353,20.9236981 78.966327,23.0339111 78.966327,25.6290565 L78.966327,60.3989524 C78.966327,62.9953606 76.9081887,65.1055736 74.3800129,65.1055736 L74.3800129,65.1055736 Z M57.0776132,50.6636846 L73.9275233,61.1768646 C74.4664998,61.5140441 75.2047723,61.1869673 75.2060257,60.3989524 L75.2060257,25.6290565 C75.2047723,24.8385159 74.4690066,24.5051249 73.9162424,24.8599842 L57.5764798,35.3971582 L57.0776132,50.6636846 L57.0776132,50.6636846 Z" id="path-4" fill="#000000"></path>
                                <path d="M50.9896854,17.4129905 C50.9896854,21.3164427 47.8498339,24.4811309 43.9754701,24.4811309 C40.1023598,24.4811309 36.9625082,21.3164427 36.9625082,17.4129905 C36.9625082,13.5095384 40.1023598,10.3448502 43.9754701,10.3448502 C47.8498339,10.3448502 50.9896854,13.5095384 50.9896854,17.4129905 L50.9896854,17.4129905 Z" id="path-5" fill="#E56A77"></path>
                                <path d="M37.0615295,15.3078289 C37.0615295,20.3743608 32.9866163,24.4811309 27.9603469,24.4811309 C22.9328241,24.4811309 18.8566575,20.3743608 18.8566575,15.3078289 C18.8566575,10.241297 22.9328241,6.13452686 27.9603469,6.13452686 C32.9866163,6.13452686 37.0615295,10.241297 37.0615295,15.3078289 L37.0615295,15.3078289 Z" id="path-6" fill="#E56A77"></path>
                                <path d="M37.7083013,22.5868642 C32.8048684,22.5868642 28.8151887,18.5659675 28.8151887,13.6244572 C28.8151887,8.6816841 32.8048684,4.6607874 37.7083013,4.6607874 C42.6117342,4.6607874 46.6026673,8.6816841 46.6026673,13.6244572 C46.6026673,18.5659675 42.6117342,22.5868642 37.7083013,22.5868642 L37.7083013,22.5868642 Z M37.7083013,8.45058356 C34.8780479,8.45058356 32.57549,10.7704288 32.57549,13.6244572 C32.57549,16.47596 34.8780479,18.7970681 37.7083013,18.7970681 C40.5398082,18.7970681 42.842366,16.47596 42.842366,13.6244572 C42.842366,10.7704288 40.5398082,8.45058356 37.7083013,8.45058356 L37.7083013,8.45058356 Z" id="path-7" fill="#000000"></path>
                                <path d="M21.6931781,22.5868642 C15.6365862,22.5868642 10.7093381,17.6213599 10.7093381,11.5180327 C10.7093381,5.41596838 15.6365862,0.45046404 21.6931781,0.45046404 C27.7485166,0.45046404 32.6745113,5.41596838 32.6745113,11.5180327 C32.6745113,17.6213599 27.7485166,22.5868642 21.6931781,22.5868642 L21.6931781,22.5868642 Z M21.6931781,4.2402602 C17.7097656,4.2402602 14.4696393,7.50471308 14.4696393,11.5180327 C14.4696393,15.5313523 17.7097656,18.7970681 21.6931781,18.7970681 C25.6740837,18.7970681 28.91421,15.5313523 28.91421,11.5180327 C28.91421,7.50471308 25.6740837,4.2402602 21.6931781,4.2402602 L21.6931781,4.2402602 Z" id="path-8" fill="#000000"></path>
                            </g>
                        </g>
                        <g id="Group-13" transform="translate(133.168950, 111.297030)">
                            <g id="group-13svg">
                                <path d="M48.828895,6.69558416 L45.045379,17.8475842 L52.0914155,27.285703 L40.3109041,27.135505 L33.5087032,36.749802 L30.0121005,25.5044356 L18.7615251,22.0092871 L28.3800274,15.2097822 L28.2296621,3.43425743 L37.67179,10.4773267 L48.828895,6.69558416 L48.828895,6.69558416 Z" id="path-1" fill="#E56A77"></path>
                                <path d="M31.070347,37.1557426 C31.0069498,37.1557426 30.9435525,37.1516832 30.8793425,37.1411287 C30.4209315,37.0688713 30.0437991,36.742495 29.9056256,36.2992079 L26.6000274,25.666 L15.9614795,22.3600198 C15.5185114,22.2228119 15.1917717,21.8452871 15.1194338,21.3873861 C15.0462831,20.9294851 15.2405388,20.4691485 15.6192968,20.2020396 L24.7151781,13.7719406 L24.5721279,2.6369901 C24.5664384,2.17340594 24.8240913,1.74635644 25.2377991,1.53607921 C25.6515068,1.3249901 26.1489315,1.36720792 26.5203744,1.64487129 L35.4488219,8.30473267 L45.9987763,4.72839604 C46.4360548,4.57982178 46.923726,4.69267327 47.2520913,5.02067327 C47.5804566,5.34867327 47.6942466,5.8349901 47.5446941,6.27421782 L43.9676256,16.8197426 L50.6300274,25.7447525 C50.9071872,26.1157822 50.9494521,26.6134653 50.7389406,27.0267129 C50.5284292,27.4399604 50.0960274,27.7013861 49.6376164,27.6916436 L38.4983927,27.5495644 L32.0660091,36.6410099 C31.8351781,36.9673861 31.4621096,37.1557426 31.070347,37.1557426 L31.070347,37.1557426 Z M19.0443744,20.7654851 L27.9354338,23.5283168 C28.3182557,23.6476634 28.6181735,23.9472475 28.737653,24.3304554 L31.5011233,33.2181188 L36.8776986,25.6189109 C37.1085297,25.2917228 37.4661553,25.0936238 37.8879909,25.1041782 L47.1984475,25.2235248 L41.6300548,17.7639604 C41.3894703,17.4424554 41.3236347,17.0235248 41.4520548,16.6443762 L44.4422922,7.82978218 L35.6251963,10.8183168 C35.2448128,10.9474059 34.8262283,10.8816436 34.5043653,10.6413267 L27.0421826,5.07506931 L27.1608493,14.3808515 C27.1665388,14.7819208 26.9730959,15.1602574 26.6463562,15.3916436 L19.0443744,20.7654851 L19.0443744,20.7654851 Z" id="path-2" fill="#000000"></path>
                                <path d="M3.24220091,51.9758218 C2.61798174,51.9758218 1.99376256,51.7379406 1.51828311,51.2621782 C0.56569863,50.3098416 0.56569863,48.7672673 1.51747032,47.8149307 L18.8135434,30.5259208 C19.7661279,29.5735842 21.3104201,29.5735842 22.2621918,30.5259208 C23.2139635,31.4774455 23.2139635,33.0208317 22.2621918,33.9731683 L4.96611872,51.2621782 C4.48982648,51.7379406 3.86560731,51.9758218 3.24220091,51.9758218 L3.24220091,51.9758218 Z" id="path-3" fill="#000000"></path>
                                <path d="M50.2699635,18.7284752 C49.4181644,19.5801386 48.037242,19.5801386 47.1854429,18.7284752 C46.3336438,17.8768119 46.3336438,16.4966139 47.1854429,15.6449505 C48.037242,14.794099 49.4181644,14.794099 50.2699635,15.6449505 C51.1217626,16.4966139 51.1217626,17.8768119 50.2699635,18.7284752 L50.2699635,18.7284752 Z" id="path-4" fill="#81BDA4"></path>
                                <path d="M36.0494703,4.51324752 C35.1968584,5.36491089 33.8159361,5.36491089 32.964137,4.51324752 C32.1123379,3.66158416 32.1123379,2.28138614 32.964137,1.42972277 C33.8159361,0.578059406 35.1968584,0.578059406 36.0494703,1.42972277 C36.9004566,2.28138614 36.9004566,3.66158416 36.0494703,4.51324752 L36.0494703,4.51324752 Z" id="path-5" fill="#81BDA4"></path>
                                <path d="M43.5774886,33.7799406 C42.7256895,34.631604 41.3447671,34.631604 40.492968,33.7799406 C39.6411689,32.9290891 39.6411689,31.5480792 40.492968,30.6972277 C41.3447671,29.8455644 42.7256895,29.8455644 43.5774886,30.6972277 C44.4301005,31.5480792 44.4301005,32.9290891 43.5774886,33.7799406 L43.5774886,33.7799406 Z" id="path-6" fill="#81BDA4"></path>
                                <path d="M21.8273516,12.0393861 C20.9763653,12.8902376 19.5946301,12.8902376 18.7428311,12.0393861 C17.891032,11.1877228 17.891032,9.80752475 18.7428311,8.9550495 C19.5946301,8.10419802 20.9763653,8.10419802 21.8273516,8.9550495 C22.6791507,9.80752475 22.6791507,11.1877228 21.8273516,12.0393861 L21.8273516,12.0393861 Z" id="path-7" fill="#81BDA4"></path>
                            </g>
                        </g>
                    </g>
                    <g id="Random-SVGs" transform="translate(76.000000, 31.000000)">
                        <g id="Random-SVG" transform="translate(192.874574, 27.043320) rotate(-351.000000) translate(-192.874574, -27.043320) translate(168.374574, 3.543320)">
                            <g id="group-41svg" transform="translate(-0.000000, 0.000000)">
                                <path d="M48.9036986,24.639767 C48.9036986,36.5354934 39.2601209,46.1783552 27.3636786,46.1783552 C15.4665204,46.1783552 5.82365857,36.5354934 5.82365857,24.639767 C5.82365857,12.7454723 15.4665204,3.10261048 27.3636786,3.10261048 C39.2601209,3.10261048 48.9036986,12.7454723 48.9036986,24.639767 L48.9036986,24.639767 Z" id="path-1" fill="#EDC951"></path>
                                <path d="M42.2739626,20.8026668 C42.2739626,24.0541797 39.637388,26.6900384 36.3844434,26.6900384 C33.1322146,26.6900384 30.4963559,24.0541797 30.4963559,20.8026668 C30.4963559,17.5504381 33.1322146,14.9145793 36.3844434,14.9145793 C39.637388,14.9145793 42.2739626,17.5504381 42.2739626,20.8026668 L42.2739626,20.8026668 Z" id="path-2" fill="#53ECF4"></path>
                                <path d="M23.6955254,20.8026668 C23.6955254,24.0541797 21.0582349,26.6900384 17.8060061,26.6900384 C14.5537774,26.6900384 11.9172027,24.0541797 11.9172027,20.8026668 C11.9172027,17.5504381 14.5537774,14.9145793 17.8060061,14.9145793 C21.0582349,14.9145793 23.6955254,17.5504381 23.6955254,20.8026668 L23.6955254,20.8026668 Z" id="path-3" fill="#53ECF4"></path>
                                <path d="M25.3177024,36.7073039 L21.6982288,36.7073039 C17.1151849,36.7073039 13.386898,33.0148108 13.386898,28.4754354 C13.386898,27.8819735 13.8679673,27.4016201 14.4607134,27.4016201 C15.0534594,27.4016201 15.5345287,27.8819735 15.5345287,28.4754354 C15.5345287,31.8307504 18.2992453,34.5603891 21.6982288,34.5603891 L25.3177024,34.5603891 C28.7739561,34.5603891 31.4821184,31.9216668 31.4821184,28.5541819 C31.4821184,27.9607199 31.9624718,27.4803665 32.5559337,27.4803665 C33.1486798,27.4803665 33.6290332,27.9607199 33.6290332,28.5541819 C33.6290332,33.1257717 29.9787769,36.7073039 25.3177024,36.7073039 L25.3177024,36.7073039 Z" id="path-4" fill="#000000"></path>
                                <path d="M33.0191061,25.7450809 C29.1805742,25.7450809 26.0564874,22.62171 26.0564874,18.7831781 C26.0564874,14.9446461 29.1805742,11.8212752 33.0191061,11.8212752 C36.857638,11.8212752 39.9817248,14.9446461 39.9817248,18.7831781 C39.9817248,22.62171 36.857638,25.7450809 33.0191061,25.7450809 L33.0191061,25.7450809 Z M33.0191061,13.9689059 C30.3639187,13.9689059 28.2041181,16.1287065 28.2041181,18.7831781 C28.2041181,21.4376496 30.3639187,23.5974502 33.0191061,23.5974502 C35.6742935,23.5974502 37.8340941,21.4376496 37.8340941,18.7831781 C37.8340941,16.1287065 35.6742935,13.9689059 33.0191061,13.9689059 L33.0191061,13.9689059 Z" id="path-5" fill="#000000"></path>
                                <path d="M14.4406688,25.7450809 C10.6021369,25.7450809 7.47805009,22.62171 7.47805009,18.7831781 C7.47805009,14.9446461 10.6021369,11.8212752 14.4406688,11.8212752 C18.2792007,11.8212752 21.4025716,14.9446461 21.4025716,18.7831781 C21.4025716,22.62171 18.2792007,25.7450809 14.4406688,25.7450809 L14.4406688,25.7450809 Z M14.4406688,13.9689059 C11.7854814,13.9689059 9.62568078,16.1287065 9.62568078,18.7831781 C9.62568078,21.4376496 11.7854814,23.5974502 14.4406688,23.5974502 C17.0958562,23.5974502 19.254941,21.4376496 19.254941,18.7831781 C19.254941,16.1287065 17.0958562,13.9689059 14.4406688,13.9689059 L14.4406688,13.9689059 Z" id="path-6" fill="#000000"></path>
                                <path d="M26.6886067,19.5284059 L20.2457146,19.5284059 C19.6529685,19.5284059 19.1718992,19.0480525 19.1718992,18.4545906 C19.1718992,17.8618445 19.6529685,17.3807752 20.2457146,17.3807752 L26.6886067,17.3807752 C27.2813527,17.3807752 27.762422,17.8618445 27.762422,18.4545906 C27.762422,19.0480525 27.2813527,19.5284059 26.6886067,19.5284059 L26.6886067,19.5284059 Z" id="path-7" fill="#000000"></path>
                                <path d="M38.9086253,19.8577093 C38.5020073,19.8577093 38.1132861,19.6257652 37.9321692,19.2327488 C37.6844758,18.6936935 37.9199993,18.0558471 38.4583388,17.8081537 L42.7664859,15.823743 C43.3062571,15.5746178 43.9433876,15.8108572 44.191081,16.3499125 C44.4394903,16.8889678 44.2039668,17.5268141 43.6656273,17.7745075 L39.3567643,19.7582024 C39.2107254,19.8254948 39.0589595,19.8577093 38.9086253,19.8577093 L38.9086253,19.8577093 Z" id="path-8" fill="#000000"></path>
                                <path d="M8.4817095,19.8577093 C8.33137535,19.8577093 8.17889357,19.8254948 8.03285468,19.7582024 L3.72399163,17.7745075 C3.1856522,17.5268141 2.9501287,16.8889678 3.19853798,16.3499125 C3.44551551,15.8108572 4.0812142,15.5746178 4.62313301,15.823743 L8.93199607,17.8081537 C9.46961962,18.0558471 9.705859,18.6936935 9.45744971,19.2327488 C9.27633286,19.6257652 8.8876117,19.8577093 8.4817095,19.8577093 L8.4817095,19.8577093 Z" id="path-9" fill="#000000"></path>
                                <path d="M23.3247011,45.2326819 C10.8548414,45.2326819 0.710149884,35.0887062 0.710149884,22.6209941 C0.710149884,10.1532821 10.8548414,0.00930639969 23.3247011,0.00930639969 C35.7945608,0.00930639969 45.9392524,10.1532821 45.9392524,22.6209941 C45.9392524,35.0887062 35.7945608,45.2326819 23.3247011,45.2326819 L23.3247011,45.2326819 Z M23.3247011,2.1569371 C12.0389018,2.1569371 2.85778058,11.3373424 2.85778058,22.6209941 C2.85778058,33.9053617 12.0389018,43.0850512 23.3247011,43.0850512 C34.6105004,43.0850512 43.7916217,33.9053617 43.7916217,22.6209941 C43.7916217,11.3373424 34.6105004,2.1569371 23.3247011,2.1569371 L23.3247011,2.1569371 Z" id="path-10" fill="#000000"></path>
                            </g>
                        </g>
                        <g id="Random-SVG" transform="translate(29.283129, 212.273188) rotate(6.000000) translate(-29.283129, -212.273188) translate(1.783129, 193.773188)">
                            <g id="group-15svg" transform="translate(-0.000000, 0.000000)">
                                <path d="M55,29.4318182 C55,33.1469545 52.015,36.1590909 48.3333333,36.1590909 L11.6666667,36.1590909 C7.985,36.1590909 5,33.1469545 5,29.4318182 L5,10.9318182 C5,7.21668182 7.985,4.20454545 11.6666667,4.20454545 L48.3333333,4.20454545 C52.015,4.20454545 55,7.21668182 55,10.9318182 L55,29.4318182 L55,29.4318182 Z" id="path-1" fill="#81BDA4"></path>
                                <path d="M44.0383333,4.22472727 C44.0383333,4.22472727 44.1666667,16.41875 55,15.2414773 L55,10.8914545 C55,7.141 52.065,4.11456818 48.3483333,4.16502273 L44.0383333,4.22472727 L44.0383333,4.22472727 Z" id="path-2" fill="#EDC951"></path>
                                <path d="M15.545,36.3878182 C15.545,36.3878182 15,24.1937955 4.16666667,25.3710682 L4.16666667,29.7210909 C4.16666667,33.4723864 7.31,36.4979773 11.0266667,36.4483636 L15.545,36.3878182 L15.545,36.3878182 Z" id="path-3" fill="#EDC951"></path>
                                <path d="M44.5833333,34.4772727 L7.91666667,34.4772727 C3.55166667,34.4772727 0,30.8933182 0,26.4886364 L0,7.98863636 C0,3.58395455 3.55166667,0 7.91666667,0 L44.5833333,0 C48.9483333,0 52.5,3.58395455 52.5,7.98863636 L52.5,26.4886364 C52.5,30.8933182 48.9483333,34.4772727 44.5833333,34.4772727 L44.5833333,34.4772727 Z M7.91666667,2.52272727 C4.93,2.52272727 2.5,4.97481818 2.5,7.98863636 L2.5,26.4886364 C2.5,29.5024545 4.93,31.9545455 7.91666667,31.9545455 L44.5833333,31.9545455 C47.57,31.9545455 50,29.5024545 50,26.4886364 L50,7.98863636 C50,4.97481818 47.57,2.52272727 44.5833333,2.52272727 L7.91666667,2.52272727 L7.91666667,2.52272727 Z" id="path-4" fill="#000000"></path>
                                <path d="M49.82,14.06 L49.8191667,14.06 C41.3966667,14.06 38.9483333,5.99904545 38.83,1.73731818 C38.8208333,1.40011364 38.9458333,1.07215909 39.1775,0.828295455 C39.4091667,0.585272727 39.7283333,0.445681818 40.0633333,0.440636364 L44.585,0.380090909 C48.9491667,0.380090909 52.5,3.96404545 52.5,8.36872727 L52.5,12.71875 C52.5,13.3637273 52.0183333,13.9035909 51.3841667,13.9733864 C50.85,14.0314091 50.3241667,14.06 49.82,14.06 L49.82,14.06 Z M41.4541667,2.94486364 C41.8433333,5.62315909 43.4275,11.5372727 49.8191667,11.5372727 L49.82,11.5372727 C49.8791667,11.5372727 49.9391667,11.5372727 50,11.5364318 L50,8.36872727 C50,5.35490909 47.5708333,2.90281818 44.585,2.90281818 L41.4541667,2.94486364 L41.4541667,2.94486364 Z" id="path-5" fill="#000000"></path>
                                <path d="M7.915,34.3460909 C3.55083333,34.3460909 1.7408297e-13,30.7629773 1.7408297e-13,26.3574545 L1.7408297e-13,22.0074318 C1.7408297e-13,21.3632955 0.481666667,20.8225909 1.11583333,20.7536364 C1.64916667,20.6956136 2.17583333,20.6661818 2.68083333,20.6661818 C11.1025,20.6661818 13.5516667,28.7271364 13.67,32.9888636 C13.6791667,33.3269091 13.5541667,33.6540227 13.3225,33.8978864 C13.09,34.14175 12.7716667,34.2813409 12.4366667,34.2855455 L7.915,34.3460909 L7.915,34.3460909 Z M2.5,23.1905909 L2.5,26.3574545 C2.5,29.3712727 4.92916667,31.8233636 7.915,31.8233636 L11.0458333,31.7813182 C10.6525,29.0777955 9.04166667,23.0770682 2.5,23.1905909 L2.5,23.1905909 Z" id="path-6" fill="#000000"></path>
                                <path d="M28.5258333,24.3863636 L22.5,24.3863636 C21.8091667,24.3863636 21.25,23.8221136 21.25,23.125 C21.25,22.4278864 21.8091667,21.8636364 22.5,21.8636364 L28.5258333,21.8636364 C29.3391667,21.8636364 30,21.2363182 30,20.4660455 C30,19.3728636 28.6775,19.3409091 28.5258333,19.3409091 L25.4325,19.3409091 C23.1066667,19.3409091 21.6666667,17.1158636 21.6666667,15.0539545 L21.6666667,14.5199773 C21.6666667,12.3739773 23.18,10.9318182 25.4325,10.9318182 L30.8333333,10.9318182 C31.5241667,10.9318182 32.0833333,11.4960682 32.0833333,12.1931818 C32.0833333,12.8902955 31.5241667,13.4545455 30.8333333,13.4545455 L25.4325,13.4545455 C24.1666667,13.4545455 24.1666667,14.2290227 24.1666667,14.5199773 L24.1666667,15.0539545 C24.1666667,15.8872955 24.7075,16.8181818 25.4325,16.8181818 L28.5258333,16.8181818 C30.8291667,16.8181818 32.5,18.3503182 32.5,20.461 C32.5,22.6280227 30.7175,24.3863636 28.5258333,24.3863636 L28.5258333,24.3863636 Z" id="path-7" fill="#000000"></path>
                                <path d="M27.0833333,27.3295455 C26.3925,27.3295455 25.8333333,26.7652955 25.8333333,26.0681818 L25.8333333,8.40909091 C25.8333333,7.71197727 26.3925,7.14772727 27.0833333,7.14772727 C27.7741667,7.14772727 28.3333333,7.71197727 28.3333333,8.40909091 L28.3333333,26.0681818 C28.3333333,26.7652955 27.7741667,27.3295455 27.0833333,27.3295455 L27.0833333,27.3295455 Z" id="path-8" fill="#000000"></path>
                            </g>
                        </g>
                        <g id="Random-SVG" transform="translate(294.000000, 34.000000)">
                            <g id="group-14svg">
                                <path d="M31.8085079,16.2875625 C31.8085079,8.03240625 25.008254,1.39064063 16.7878095,1.82840625 C9.59288889,2.21151563 3.69879365,8.19895313 3.32139683,15.5079375 C2.89015873,23.859 9.42831746,30.7673438 17.5553016,30.7673438 C17.6035556,30.7673438 17.6833016,30.6559688 17.6833016,30.6559688 C17.6833016,30.6559688 18.1947937,27.6045 18.2943492,26.5139531 C18.4589206,24.7010156 19.6043175,23.2304531 20.9605079,24.531375 L28.5348571,32.3353594 C29.8676825,33.3774375 31.7978413,32.4163125 31.7988571,30.7075313 C31.8029206,25.2434531 31.8085079,16.3504688 31.8085079,16.2875625 L31.8085079,16.2875625 Z" id="path-1" fill="#53ECF4"></path>
                                <path d="M18.8693333,9.87473438 C18.8693333,10.9946719 17.9753651,11.9026875 16.8726349,11.9026875 C15.7699048,11.9026875 14.8764444,10.9946719 14.8764444,9.87473438 C14.8764444,8.75428125 15.7699048,7.84626562 16.8726349,7.84626562 C17.9753651,7.84626562 18.8693333,8.75428125 18.8693333,9.87473438 L18.8693333,9.87473438 Z" id="path-2" fill="#EDC951"></path>
                                <path d="M19.2838095,16.6144687 C19.2838095,17.7349219 18.3903492,18.6429375 17.287619,18.6429375 C16.1848889,18.6429375 15.2909206,17.7349219 15.2909206,16.6144687 C15.2909206,15.4940156 16.1848889,14.586 17.287619,14.586 C18.3903492,14.586 19.2838095,15.4940156 19.2838095,16.6144687 L19.2838095,16.6144687 Z" id="path-3" fill="#EDC951"></path>
                                <path d="M29.1235556,23.0097656 C29.1235556,24.1297031 28.2295873,25.0382344 27.1273651,25.0382344 C26.024127,25.0382344 25.1306667,24.1297031 25.1306667,23.0097656 C25.1306667,21.8893125 26.024127,20.9812969 27.1273651,20.9812969 C28.2295873,20.9812969 29.1235556,21.8893125 29.1235556,23.0097656 L29.1235556,23.0097656 Z" id="path-4" fill="#EDC951"></path>
                                <path d="M25.0895238,13.6656094 C25.0895238,14.7860625 24.1955556,15.6940781 23.0928254,15.6940781 C21.9900952,15.6940781 21.096127,14.7860625 21.096127,13.6656094 C21.096127,12.5456719 21.9900952,11.6376562 23.0928254,11.6376562 C24.1955556,11.6376562 25.0895238,12.5456719 25.0895238,13.6656094 L25.0895238,13.6656094 Z" id="path-5" fill="#E56A77"></path>
                                <path d="M12.2346667,13.6656094 C12.2346667,14.7860625 11.3406984,15.6940781 10.2379683,15.6940781 C9.1352381,15.6940781 8.24177778,14.7860625 8.24177778,13.6656094 C8.24177778,12.5456719 9.1352381,11.6376562 10.2379683,11.6376562 C11.3406984,11.6376562 12.2346667,12.5456719 12.2346667,13.6656094 L12.2346667,13.6656094 Z" id="path-6" fill="#E56A77"></path>
                                <path d="M14.3080635,20.8266094 C14.3080635,21.9470625 13.4140952,22.8550781 12.3113651,22.8550781 C11.2086349,22.8550781 10.3146667,21.9470625 10.3146667,20.8266094 C10.3146667,19.7066719 11.2086349,18.7986562 12.3113651,18.7986562 C13.4140952,18.7986562 14.3080635,19.7066719 14.3080635,20.8266094 L14.3080635,20.8266094 Z" id="path-7" fill="#E56A77"></path>
                                <path d="M27.7333333,32.5096406 L27.7328254,32.5096406 C27.120254,32.5096406 26.5340952,32.3044219 26.0383492,31.9166719 C26.0109206,31.8950156 25.9850159,31.8718125 25.9606349,31.8470625 L18.3862857,24.0430781 C18.2171429,23.8816875 18.0353016,23.7780469 17.9067937,23.7780469 C17.6045714,23.7780469 17.1210159,24.4535156 17.0209524,25.5533438 C16.920381,26.6603906 16.423619,29.6278125 16.4022857,29.753625 C16.3829841,29.8711875 16.3367619,29.9825625 16.2676825,30.0789844 C16.0132063,30.4347656 15.7226667,30.5095313 15.5230476,30.5095313 C11.3630476,30.5095313 7.49409524,28.8203438 4.62933333,25.7539219 C1.76660317,22.6890469 0.310349206,18.6692344 0.528761905,14.4349219 C0.925460317,6.75623438 7.15733333,0.42590625 14.7159365,0.023203125 C23.3696508,-0.43725 30.5386667,6.57267188 30.5386667,15.2557969 C30.5386667,15.3181875 30.5330794,24.2116875 30.5290159,29.6767969 C30.528,31.238625 29.2739048,32.5096406 27.7333333,32.5096406 L27.7333333,32.5096406 Z M27.0049524,30.7183594 C27.223873,30.8776875 27.4742857,30.9612187 27.7328254,30.9612187 L27.7333333,30.9612187 C28.3580952,30.9612187 29.0046984,30.4806562 29.0052063,29.67525 C29.0092698,24.2106562 29.0153651,15.3181875 29.0153651,15.2557969 C29.0153651,7.45335938 22.5711746,1.15654688 14.7956825,1.5695625 C8.00507937,1.93101563 2.40660317,7.61784375 2.05053968,14.5163906 C1.85396825,18.3217031 3.1624127,21.9341719 5.73511111,24.688125 C8.1864127,27.3121406 11.4554921,28.8136406 14.9897143,28.9513125 C15.1400635,28.0298906 15.4331429,26.1860156 15.503746,25.4110312 C15.6739048,23.5382812 16.6618413,22.2301406 17.9067937,22.2301406 C18.4431746,22.2301406 18.9627937,22.4678437 19.4519365,22.9370625 L27.0049524,30.7183594 L27.0049524,30.7183594 Z" id="path-8" fill="#000000"></path>
                                <path d="M21.0610794,15.43575 C19.5398095,15.43575 18.3024762,14.1791719 18.3024762,12.6338437 C18.3024762,11.0885156 19.5398095,9.83142187 21.0610794,9.83142187 C22.5818413,9.83142187 23.8196825,11.0885156 23.8196825,12.6338437 C23.8196825,14.1791719 22.5818413,15.43575 21.0610794,15.43575 L21.0610794,15.43575 Z M21.0610794,11.3793281 C20.3799365,11.3793281 19.8262857,11.9423906 19.8262857,12.6338438 C19.8262857,13.3252969 20.3799365,13.8878438 21.0610794,13.8878438 C21.7417143,13.8878438 22.2953651,13.3252969 22.2953651,12.6338438 C22.2953651,11.9423906 21.7417143,11.3793281 21.0610794,11.3793281 L21.0610794,11.3793281 Z" id="path-9" fill="#000000"></path>
                                <path d="M8.20622222,15.43575 C6.68546032,15.43575 5.44812698,14.1791719 5.44812698,12.6338437 C5.44812698,11.0885156 6.68546032,9.83142187 8.20622222,9.83142187 C9.72749206,9.83142187 10.9648254,11.0885156 10.9648254,12.6338437 C10.9648254,14.1791719 9.72749206,15.43575 8.20622222,15.43575 L8.20622222,15.43575 Z M8.20622222,11.3793281 C7.5255873,11.3793281 6.97193651,11.9423906 6.97193651,12.6338438 C6.97193651,13.3252969 7.5255873,13.8878438 8.20622222,13.8878438 C8.88736508,13.8878438 9.44101587,13.3252969 9.44101587,12.6338438 C9.44101587,11.9423906 8.88736508,11.3793281 8.20622222,11.3793281 L8.20622222,11.3793281 Z" id="path-10" fill="#000000"></path>
                                <path d="M10.279619,22.5972656 C8.75885714,22.5972656 7.52101587,21.3401719 7.52101587,19.7948437 C7.52101587,18.2495156 8.75885714,16.9924219 10.279619,16.9924219 C11.8008889,16.9924219 13.0382222,18.2495156 13.0382222,19.7948437 C13.0382222,21.3401719 11.8008889,22.5972656 10.279619,22.5972656 L10.279619,22.5972656 Z M10.279619,18.5403281 C9.59898413,18.5403281 9.0448254,19.1033906 9.0448254,19.7948437 C9.0448254,20.4862969 9.59898413,21.0488437 10.279619,21.0488437 C10.9607619,21.0488437 11.5144127,20.4862969 11.5144127,19.7948437 C11.5144127,19.1033906 10.9607619,18.5403281 10.279619,18.5403281 L10.279619,18.5403281 Z" id="path-11" fill="#000000"></path>
                                <path d="M14.8408889,11.644875 C13.320127,11.644875 12.0827937,10.3877812 12.0827937,8.84245312 C12.0827937,7.29764062 13.320127,6.04003125 14.8408889,6.04003125 C16.3621587,6.04003125 17.5994921,7.29764062 17.5994921,8.84245312 C17.5994921,10.3877812 16.3621587,11.644875 14.8408889,11.644875 L14.8408889,11.644875 Z M14.8408889,7.58845312 C14.160254,7.58845312 13.6066032,8.151 13.6066032,8.84245312 C13.6066032,9.53442187 14.160254,10.0969687 14.8408889,10.0969687 C15.5220317,10.0969687 16.0756825,9.53442187 16.0756825,8.84245312 C16.0756825,8.151 15.5220317,7.58845312 14.8408889,7.58845312 L14.8408889,7.58845312 Z" id="path-12" fill="#000000"></path>
                                <path d="M15.255873,18.3846094 C13.7346032,18.3846094 12.4967619,17.1275156 12.4967619,15.5827031 C12.4967619,14.0368594 13.7346032,12.7802813 15.255873,12.7802813 C16.7766349,12.7802813 18.0139683,14.0368594 18.0139683,15.5827031 C18.0139683,17.1275156 16.7766349,18.3846094 15.255873,18.3846094 L15.255873,18.3846094 Z M15.255873,14.3281875 C14.5747302,14.3281875 14.0210794,14.8907344 14.0210794,15.5827031 C14.0210794,16.2736406 14.5747302,16.8367031 15.255873,16.8367031 C15.9365079,16.8367031 16.4901587,16.2736406 16.4901587,15.5827031 C16.4901587,14.8907344 15.9365079,14.3281875 15.255873,14.3281875 L15.255873,14.3281875 Z" id="path-13" fill="#000000"></path>
                                <path d="M25.0951111,24.7799062 C23.5743492,24.7799062 22.3370159,23.5228125 22.3370159,21.9774844 C22.3370159,20.4326719 23.5743492,19.1755781 25.0951111,19.1755781 C26.616381,19.1755781 27.8537143,20.4326719 27.8537143,21.9774844 C27.8537143,23.5228125 26.616381,24.7799062 25.0951111,24.7799062 L25.0951111,24.7799062 Z M25.0951111,20.7234844 C24.4144762,20.7234844 23.8608254,21.2860312 23.8608254,21.9774844 C23.8608254,22.6694531 24.4144762,23.232 25.0951111,23.232 C25.776254,23.232 26.3299048,22.6694531 26.3299048,21.9774844 C26.3299048,21.2860312 25.776254,20.7234844 25.0951111,20.7234844 L25.0951111,20.7234844 Z" id="path-14" fill="#000000"></path>
                            </g>
                        </g>
                    </g>
                </g>
            </g>
        </g>
    </g>
</svg>